<svg xmlns="http://www.w3.org/2000/svg" viewBox="0 0 288 512" width="288" height="512">
  <defs>
    <linearGradient id="sky" x1="0" y1="0" x2="0" y2="1">
      <stop offset="0%"   stop-color="#4EC0CA"/>
      <stop offset="60%"  stop-color="#70CFD6"/>
      <stop offset="100%" stop-color="#A8DDE2"/>
    </linearGradient>
  </defs>
  <!-- Cielo -->
  <rect width="288" height="512" fill="url(#sky)"/>
  <!-- Sol -->
  <circle cx="240" cy="80" r="36" fill="#FFD700" opacity="0.85"/>
  <circle cx="240" cy="80" r="26" fill="#FFEC5A"/>
  <!-- Nube grande izquierda -->
  <ellipse cx="68" cy="100" rx="44" ry="20" fill="white" opacity="0.88"/>
  <ellipse cx="44" cy="109" rx="26" ry="16" fill="white" opacity="0.88"/>
  <ellipse cx="94" cy="109" rx="26" ry="16" fill="white" opacity="0.88"/>
  <!-- Nube media centro -->
  <ellipse cx="170" cy="155" rx="36" ry="16" fill="white" opacity="0.80"/>
  <ellipse cx="148" cy="163" rx="22" ry="13" fill="white" opacity="0.80"/>
  <ellipse cx="192" cy="163" rx="22" ry="13" fill="white" opacity="0.80"/>
  <!-- Nube pequeña derecha -->
  <ellipse cx="248" cy="210" rx="28" ry="13" fill="white" opacity="0.72"/>
  <ellipse cx="228" cy="218" rx="18" ry="10" fill="white" opacity="0.72"/>
  <ellipse cx="266" cy="218" rx="18" ry="10" fill="white" opacity="0.72"/>
  <!-- Nube izquierda baja -->
  <ellipse cx="52" cy="260" rx="32" ry="14" fill="white" opacity="0.65"/>
  <ellipse cx="32" cy="268" rx="20" ry="11" fill="white" opacity="0.65"/>
  <ellipse cx="72" cy="268" rx="20" ry="11" fill="white" opacity="0.65"/>
  <!-- Horizonte suave -->
  <rect x="0" y="420" width="288" height="92" fill="#C8EEF0" opacity="0.35"/>
</svg>
